<svg width="52" height="52" fill="none" xmlns="http://www.w3.org/2000/svg"><g clip-path="url(#clip0)"><path d="M23.41 38.833l5.14-5.14 1.04 1.038-5.141 5.14-1.039-1.038z" fill="url(#paint0_linear)"/><path d="M23.563 33.844h1.468v1.468h-1.468v-1.468z" fill="url(#paint1_linear)"/><path d="M27.969 38.25h1.468v1.469H27.97V38.25z" fill="url(#paint2_linear)"/><path d="M26.5 44.125a7.344 7.344 0 10-7.344-7.344 7.352 7.352 0 007.344 7.344zm0-13.219a5.875 5.875 0 11-5.875 5.875 5.882 5.882 0 015.875-5.875z" fill="url(#paint3_linear)"/><path d="M10.344 46.328v.734h32.312v-.734a3.676 3.676 0 013.672-3.672h.734v-11.75h-.734a3.676 3.676 0 01-3.672-3.672V26.5H10.344v.734a3.676 3.676 0 01-3.672 3.672h-.734v11.75h.734a3.676 3.676 0 013.672 3.672zM7.406 32.323a5.153 5.153 0 004.355-4.354H41.24a5.153 5.153 0 004.354 4.354v8.916a5.153 5.153 0 00-4.355 4.355H11.761a5.153 5.153 0 00-4.355-4.355v-8.916z" fill="url(#paint4_linear)"/><path d="M43.097 12.037l-3.781 1.013-5.14-9.663L3.39 19.762l.69 1.297L33.57 5.373l4.289 8.067-1.46.39-1.37-2.58-.649.348a3.67 3.67 0 01-4.961-1.518l-.348-.65-12.655 6.735.69 1.297 11.406-6.068a5.148 5.148 0 005.886 1.8l.546 1.028-23.996 6.428.38 1.419 30.73-8.234 2.603 9.727h-1.523l-.982-3.666-.708.189a3.685 3.685 0 01-4.5-2.602l-.19-.71L22.29 20.65l.38 1.419 13.096-3.51a5.164 5.164 0 005.333 3.085l.515 1.92H3V50h47V23.562h-3.819l-3.084-11.525zM48.53 48.53H4.47v-23.5h44.06v23.5z" fill="url(#paint5_linear)"/><path d="M41.188 3H50v1.469h-8.813V3z" fill="url(#paint6_linear)"/><path d="M44.125 5.938H50v1.468h-5.875V5.938z" fill="url(#paint7_linear)"/><path d="M47.063 8.875H50v1.469h-2.938V8.875z" fill="url(#paint8_linear)"/><path d="M3 3h8.813v1.469H3V3z" fill="url(#paint9_linear)"/><path d="M3 5.938h5.875v1.468H3V5.938z" fill="url(#paint10_linear)"/><path d="M3 8.875h2.938v1.469H3V8.875z" fill="url(#paint11_linear)"/></g><defs><linearGradient id="paint0_linear" x1="23.41" y1="33.731" x2="29.713" y2="33.859" gradientUnits="userSpaceOnUse"><stop stop-color="#EB5D56"/><stop offset="1" stop-color="#390A40"/></linearGradient><linearGradient id="paint1_linear" x1="23.563" y1="33.853" x2="25.061" y2="33.883" gradientUnits="userSpaceOnUse"><stop stop-color="#EB5D56"/><stop offset="1" stop-color="#390A40"/></linearGradient><linearGradient id="paint2_linear" x1="27.969" y1="38.259" x2="29.467" y2="38.29" gradientUnits="userSpaceOnUse"><stop stop-color="#EB5D56"/><stop offset="1" stop-color="#390A40"/></linearGradient><linearGradient id="paint3_linear" x1="19.156" y1="29.528" x2="34.137" y2="29.834" gradientUnits="userSpaceOnUse"><stop stop-color="#EB5D56"/><stop offset="1" stop-color="#390A40"/></linearGradient><linearGradient id="paint4_linear" x1="5.938" y1="26.627" x2="47.832" y2="28.337" gradientUnits="userSpaceOnUse"><stop stop-color="#EB5D56"/><stop offset="1" stop-color="#390A40"/></linearGradient><linearGradient id="paint5_linear" x1="3" y1="3.675" x2="50.939" y2="4.661" gradientUnits="userSpaceOnUse"><stop stop-color="#EB5D56"/><stop offset="1" stop-color="#390A40"/></linearGradient><linearGradient id="paint6_linear" x1="41.188" y1="3.009" x2="50.047" y2="4.094" gradientUnits="userSpaceOnUse"><stop stop-color="#EB5D56"/><stop offset="1" stop-color="#390A40"/></linearGradient><linearGradient id="paint7_linear" x1="44.125" y1="5.947" x2="50.08" y2="6.433" gradientUnits="userSpaceOnUse"><stop stop-color="#EB5D56"/><stop offset="1" stop-color="#390A40"/></linearGradient><linearGradient id="paint8_linear" x1="47.063" y1="8.884" x2="50.055" y2="9.006" gradientUnits="userSpaceOnUse"><stop stop-color="#EB5D56"/><stop offset="1" stop-color="#390A40"/></linearGradient><linearGradient id="paint9_linear" x1="3" y1="3.009" x2="11.86" y2="4.094" gradientUnits="userSpaceOnUse"><stop stop-color="#EB5D56"/><stop offset="1" stop-color="#390A40"/></linearGradient><linearGradient id="paint10_linear" x1="3" y1="5.947" x2="8.955" y2="6.433" gradientUnits="userSpaceOnUse"><stop stop-color="#EB5D56"/><stop offset="1" stop-color="#390A40"/></linearGradient><linearGradient id="paint11_linear" x1="3" y1="8.884" x2="5.992" y2="9.006" gradientUnits="userSpaceOnUse"><stop stop-color="#EB5D56"/><stop offset="1" stop-color="#390A40"/></linearGradient><clipPath id="clip0"><path fill="#fff" transform="translate(3 3)" d="M0 0h47v47H0z"/></clipPath></defs></svg>