<svg width="20" height="20" fill="none" xmlns="http://www.w3.org/2000/svg"><path d="M17.964 15.243c-.049-.146-.356-.36-.923-.643a25.43 25.43 0 00-.655-.364 80.32 80.32 0 01-.771-.425c-.23-.13-.447-.255-.65-.376a15.528 15.528 0 00-.303-.213 3.402 3.402 0 00-.431-.261.794.794 0 00-.346-.085c-.162 0-.364.116-.607.346-.242.23-.465.482-.667.753a7.314 7.314 0 01-.643.752c-.227.231-.413.346-.559.346-1.284 0-3.082-1.77-3.897-2.585-.879-.88-2.585-2.537-2.585-3.897 0-.146.115-.332.346-.558a7.31 7.31 0 01.752-.644c.271-.202.522-.424.753-.667.23-.243.346-.445.346-.607a.793.793 0 00-.085-.346 3.374 3.374 0 00-.261-.43c-.118-.17-.188-.272-.213-.304a26.67 26.67 0 01-.376-.65c-.13-.23-.271-.487-.425-.77a28.861 28.861 0 00-.364-.656c-.283-.566-.498-.874-.643-.922A.68.68 0 004.502 2a4 4 0 00-.856.121c-.352.081-.63.166-.832.255-.404.17-.833.664-1.286 1.481-1.242 2.289-.07 5.485 1.226 7.562 1.417 2.298 3.529 4.41 5.826 5.827 2.077 1.295 5.275 2.468 7.563 1.227.895-.496 1.433-1.015 1.691-1.945.016-.056.03-.114.044-.173.082-.352.122-.638.122-.856a.675.675 0 00-.036-.256z" fill="url(#paint0_linear)"/><defs><linearGradient id="paint0_linear" x1="1" y1="2.105" x2="18.34" y2="2.459" gradientUnits="userSpaceOnUse"><stop stop-color="#EB5D56"/><stop offset="1" stop-color="#390A40"/></linearGradient></defs></svg>