<svg xmlns="http://www.w3.org/2000/svg" xmlns:xlink="http://www.w3.org/1999/xlink"><defs>
<linearGradient id="paint0_linear" x1="23.4105" y1="33.7306" x2="29.713" y2="33.8592" gradientUnits="userSpaceOnUse">
<stop stop-color="#EB5D56"/>
<stop offset="1" stop-color="#390A40"/>
</linearGradient>
<linearGradient id="paint1_linear" x1="23.5625" y1="33.8528" x2="25.0606" y2="33.8834" gradientUnits="userSpaceOnUse">
<stop stop-color="#EB5D56"/>
<stop offset="1" stop-color="#390A40"/>
</linearGradient>
<linearGradient id="paint2_linear" x1="27.9688" y1="38.2591" x2="29.4669" y2="38.2896" gradientUnits="userSpaceOnUse">
<stop stop-color="#EB5D56"/>
<stop offset="1" stop-color="#390A40"/>
</linearGradient>
<linearGradient id="paint3_linear" x1="19.1563" y1="29.5283" x2="34.1373" y2="29.834" gradientUnits="userSpaceOnUse">
<stop stop-color="#EB5D56"/>
<stop offset="1" stop-color="#390A40"/>
</linearGradient>
<linearGradient id="paint4_linear" x1="5.9375" y1="26.6271" x2="47.832" y2="28.337" gradientUnits="userSpaceOnUse">
<stop stop-color="#EB5D56"/>
<stop offset="1" stop-color="#390A40"/>
</linearGradient>
<linearGradient id="paint5_linear" x1="3" y1="3.67496" x2="50.9389" y2="4.66142" gradientUnits="userSpaceOnUse">
<stop stop-color="#EB5D56"/>
<stop offset="1" stop-color="#390A40"/>
</linearGradient>
<linearGradient id="paint6_linear" x1="41.1875" y1="3.00908" x2="50.047" y2="4.09391" gradientUnits="userSpaceOnUse">
<stop stop-color="#EB5D56"/>
<stop offset="1" stop-color="#390A40"/>
</linearGradient>
<linearGradient id="paint7_linear" x1="44.125" y1="5.94658" x2="50.0802" y2="6.43272" gradientUnits="userSpaceOnUse">
<stop stop-color="#EB5D56"/>
<stop offset="1" stop-color="#390A40"/>
</linearGradient>
<linearGradient id="paint8_linear" x1="47.0625" y1="8.88408" x2="50.055" y2="9.00622" gradientUnits="userSpaceOnUse">
<stop stop-color="#EB5D56"/>
<stop offset="1" stop-color="#390A40"/>
</linearGradient>
<linearGradient id="paint9_linear" x1="3" y1="3.00908" x2="11.8595" y2="4.09391" gradientUnits="userSpaceOnUse">
<stop stop-color="#EB5D56"/>
<stop offset="1" stop-color="#390A40"/>
</linearGradient>
<linearGradient id="paint10_linear" x1="3" y1="5.94658" x2="8.95521" y2="6.43272" gradientUnits="userSpaceOnUse">
<stop stop-color="#EB5D56"/>
<stop offset="1" stop-color="#390A40"/>
</linearGradient>
<linearGradient id="paint11_linear" x1="3" y1="8.88408" x2="5.99246" y2="9.00622" gradientUnits="userSpaceOnUse">
<stop stop-color="#EB5D56"/>
<stop offset="1" stop-color="#390A40"/>
</linearGradient>
<clipPath id="clip0">
<rect width="47" height="47" fill="white" transform="translate(3 3)"/>
</clipPath>

<linearGradient id="paint0_linear" x1="2.27414" y1="0.290437" x2="37.8486" y2="0.82909" gradientUnits="userSpaceOnUse">
<stop stop-color="#EB5D56"/>
<stop offset="1" stop-color="#390A40"/>
</linearGradient>
<linearGradient id="paint1_linear" x1="21.9839" y1="18.3852" x2="45.1839" y2="18.7591" gradientUnits="userSpaceOnUse">
<stop stop-color="#EB5D56"/>
<stop offset="1" stop-color="#390A40"/>
</linearGradient>
<linearGradient id="paint2_linear" x1="25.0161" y1="25.1192" x2="42.0268" y2="25.4664" gradientUnits="userSpaceOnUse">
<stop stop-color="#EB5D56"/>
<stop offset="1" stop-color="#390A40"/>
</linearGradient>
<linearGradient id="paint3_linear" x1="30.5446" y1="29.3997" x2="36.4727" y2="29.4819" gradientUnits="userSpaceOnUse">
<stop stop-color="#EB5D56"/>
<stop offset="1" stop-color="#390A40"/>
</linearGradient>
<linearGradient id="paint4_linear" x1="5.30643" y1="12.1384" x2="24.0958" y2="17.1233" gradientUnits="userSpaceOnUse">
<stop stop-color="#EB5D56"/>
<stop offset="1" stop-color="#390A40"/>
</linearGradient>
<linearGradient id="paint5_linear" x1="5.30643" y1="15.1707" x2="24.0958" y2="20.1556" gradientUnits="userSpaceOnUse">
<stop stop-color="#EB5D56"/>
<stop offset="1" stop-color="#390A40"/>
</linearGradient>
<linearGradient id="paint6_linear" x1="5.30643" y1="18.2029" x2="24.0958" y2="23.1879" gradientUnits="userSpaceOnUse">
<stop stop-color="#EB5D56"/>
<stop offset="1" stop-color="#390A40"/>
</linearGradient>
<linearGradient id="paint7_linear" x1="5.30643" y1="21.2352" x2="20.1585" y2="24.2662" gradientUnits="userSpaceOnUse">
<stop stop-color="#EB5D56"/>
<stop offset="1" stop-color="#390A40"/>
</linearGradient>
<linearGradient id="paint8_linear" x1="5.30643" y1="24.2674" x2="20.1585" y2="27.2985" gradientUnits="userSpaceOnUse">
<stop stop-color="#EB5D56"/>
<stop offset="1" stop-color="#390A40"/>
</linearGradient>
<linearGradient id="paint9_linear" x1="5.30643" y1="27.2997" x2="20.1585" y2="30.3307" gradientUnits="userSpaceOnUse">
<stop stop-color="#EB5D56"/>
<stop offset="1" stop-color="#390A40"/>
</linearGradient>
<linearGradient id="paint10_linear" x1="5.30643" y1="36.3965" x2="20.1586" y2="39.4275" gradientUnits="userSpaceOnUse">
<stop stop-color="#EB5D56"/>
<stop offset="1" stop-color="#390A40"/>
</linearGradient>
<linearGradient id="paint11_linear" x1="5.30643" y1="39.4287" x2="20.1585" y2="42.4598" gradientUnits="userSpaceOnUse">
<stop stop-color="#EB5D56"/>
<stop offset="1" stop-color="#390A40"/>
</linearGradient>
<linearGradient id="paint12_linear" x1="5.30643" y1="42.461" x2="20.1586" y2="45.492" gradientUnits="userSpaceOnUse">
<stop stop-color="#EB5D56"/>
<stop offset="1" stop-color="#390A40"/>
</linearGradient>
<linearGradient id="paint13_linear" x1="6.06454" y1="6.0739" x2="7.61097" y2="6.10546" gradientUnits="userSpaceOnUse">
<stop stop-color="#EB5D56"/>
<stop offset="1" stop-color="#390A40"/>
</linearGradient>
<linearGradient id="paint14_linear" x1="9.0968" y1="6.0739" x2="10.6432" y2="6.10546" gradientUnits="userSpaceOnUse">
<stop stop-color="#EB5D56"/>
<stop offset="1" stop-color="#390A40"/>
</linearGradient>
<linearGradient id="paint15_linear" x1="12.1291" y1="6.0739" x2="13.6755" y2="6.10546" gradientUnits="userSpaceOnUse">
<stop stop-color="#EB5D56"/>
<stop offset="1" stop-color="#390A40"/>
</linearGradient>
<linearGradient id="paint16_linear" x1="15.1613" y1="6.0739" x2="25.0434" y2="7.38479" gradientUnits="userSpaceOnUse">
<stop stop-color="#EB5D56"/>
<stop offset="1" stop-color="#390A40"/>
</linearGradient>

<linearGradient id="paint0_linear" x1="23.0822" y1="16.1652" x2="30.2295" y2="16.2316" gradientUnits="userSpaceOnUse">
<stop stop-color="#EB5D56"/>
<stop offset="1" stop-color="#390A40"/>
</linearGradient>
<linearGradient id="paint1_linear" x1="14.6918" y1="12.0644" x2="38.9529" y2="12.5595" gradientUnits="userSpaceOnUse">
<stop stop-color="#EB5D56"/>
<stop offset="1" stop-color="#390A40"/>
</linearGradient>
<linearGradient id="paint2_linear" x1="4.04675" y1="34.5596" x2="48.8645" y2="36.9952" gradientUnits="userSpaceOnUse">
<stop stop-color="#EB5D56"/>
<stop offset="1" stop-color="#390A40"/>
</linearGradient>
<linearGradient id="paint3_linear" x1="25.7645" y1="1.05828" x2="27.4383" y2="1.06422" gradientUnits="userSpaceOnUse">
<stop stop-color="#EB5D56"/>
<stop offset="1" stop-color="#390A40"/>
</linearGradient>
<linearGradient id="paint4_linear" x1="31.9155" y1="5.13365" x2="33.5892" y2="5.14416" gradientUnits="userSpaceOnUse">
<stop stop-color="#EB5D56"/>
<stop offset="1" stop-color="#390A40"/>
</linearGradient>
<linearGradient id="paint5_linear" x1="19.6135" y1="5.13365" x2="21.2872" y2="5.14416" gradientUnits="userSpaceOnUse">
<stop stop-color="#EB5D56"/>
<stop offset="1" stop-color="#390A40"/>
</linearGradient>

<linearGradient id="paint0_linear" x1="1" y1="2.10505" x2="18.3397" y2="2.45892" gradientUnits="userSpaceOnUse">
<stop stop-color="#EB5D56"/>
<stop offset="1" stop-color="#390A40"/>
</linearGradient>

<linearGradient id="paint0_linear" x1="24.8176" y1="20.0257" x2="37.256" y2="20.2768" gradientUnits="userSpaceOnUse">
<stop stop-color="#EB5D56"/>
<stop offset="1" stop-color="#390A40"/>
</linearGradient>
<linearGradient id="paint1_linear" x1="21.7681" y1="3.28565" x2="48.5318" y2="3.59561" gradientUnits="userSpaceOnUse">
<stop stop-color="#EB5D56"/>
<stop offset="1" stop-color="#390A40"/>
</linearGradient>
<linearGradient id="paint2_linear" x1="15.6709" y1="13.7953" x2="21.0882" y2="14.1781" gradientUnits="userSpaceOnUse">
<stop stop-color="#EB5D56"/>
<stop offset="1" stop-color="#390A40"/>
</linearGradient>
<linearGradient id="paint3_linear" x1="11.8599" y1="19.1883" x2="21.0581" y2="20.3026" gradientUnits="userSpaceOnUse">
<stop stop-color="#EB5D56"/>
<stop offset="1" stop-color="#390A40"/>
</linearGradient>
<linearGradient id="paint4_linear" x1="8.04883" y1="24.5812" x2="20.8925" y2="26.7855" gradientUnits="userSpaceOnUse">
<stop stop-color="#EB5D56"/>
<stop offset="1" stop-color="#390A40"/>
</linearGradient>
<linearGradient id="paint5_linear" x1="5" y1="29.9741" x2="20.6305" y2="33.2878" gradientUnits="userSpaceOnUse">
<stop stop-color="#EB5D56"/>
<stop offset="1" stop-color="#390A40"/>
</linearGradient>
<linearGradient id="paint6_linear" x1="9.57324" y1="35.367" x2="20.9782" y2="37.0941" gradientUnits="userSpaceOnUse">
<stop stop-color="#EB5D56"/>
<stop offset="1" stop-color="#390A40"/>
</linearGradient>
<linearGradient id="paint7_linear" x1="14.1465" y1="40.76" x2="21.0891" y2="41.3908" gradientUnits="userSpaceOnUse">
<stop stop-color="#EB5D56"/>
<stop offset="1" stop-color="#390A40"/>
</linearGradient>
</defs><symbol id="icon-com" viewBox="0 0 52 52">
<g clip-path="url(#clip0)">
<path d="M23.4105 38.8327L28.5507 33.6924L29.5895 34.7309L24.4489 39.8715L23.4105 38.8327Z" fill="url(#paint0_linear)"/>
<path d="M23.5625 33.8438H25.0312V35.3125H23.5625V33.8438Z" fill="url(#paint1_linear)"/>
<path d="M27.9688 38.25H29.4375V39.7188H27.9688V38.25Z" fill="url(#paint2_linear)"/>
<path d="M26.5 44.125C30.5559 44.125 33.8438 40.8372 33.8438 36.7812C33.8438 32.7253 30.5559 29.4375 26.5 29.4375C22.4441 29.4375 19.1562 32.7253 19.1562 36.7812C19.1606 40.8354 22.4459 44.1207 26.5 44.125ZM26.5 30.9062C29.7448 30.9062 32.375 33.5364 32.375 36.7812C32.375 40.0261 29.7448 42.6562 26.5 42.6562C23.2552 42.6562 20.625 40.0261 20.625 36.7812C20.6286 33.5382 23.257 30.9098 26.5 30.9062Z" fill="url(#paint3_linear)"/>
<path d="M10.3438 46.3281V47.0625H42.6562V46.3281C42.6588 44.3011 44.3011 42.6588 46.3281 42.6562H47.0625V30.9062H46.3281C44.3011 30.9037 42.6588 29.2614 42.6562 27.2344V26.5H10.3438V27.2344C10.3412 29.2614 8.69894 30.9037 6.67188 30.9062H5.9375V42.6562H6.67188C8.69894 42.6588 10.3412 44.3011 10.3438 46.3281ZM7.40625 32.323C9.66065 31.9938 11.4313 30.2232 11.7605 27.9688H41.2395C41.5687 30.2232 43.3393 31.9938 45.5938 32.323V41.2395C43.3393 41.5687 41.5687 43.3393 41.2395 45.5938H11.7605C11.4313 43.3393 9.66065 41.5687 7.40625 41.2395V32.323Z" fill="url(#paint4_linear)"/>
<path d="M43.0969 12.0366L39.3157 13.05L34.1765 3.38691L3.38906 19.7623L4.07969 21.0589L33.5698 5.37345L37.8577 13.4397L36.3986 13.8306L35.0281 11.2506L34.3791 11.5981C32.5898 12.5472 30.3698 11.8681 29.4178 10.0802L29.0703 9.4308L16.4149 16.165L17.1044 17.462L28.5106 11.394C29.8585 13.2303 32.2531 13.9622 34.3974 13.1938L34.9432 14.2218L10.9465 20.6501L11.327 22.0686L42.0563 13.8349L44.6596 23.5625H43.1371L42.1553 19.8956L41.4475 20.0846C39.4871 20.6031 37.4758 19.4402 36.9473 17.4827L36.7569 16.7731L22.2899 20.6501L22.6703 22.0686L35.7665 18.5592C36.669 20.6512 38.8359 21.9044 41.0993 21.6437L41.6135 23.5647H3V50H50V23.5625H46.1811L43.0969 12.0366ZM48.5312 48.5312H4.46875V25.0312H48.5312V48.5312Z" fill="url(#paint5_linear)"/>
<path d="M41.1875 3H50V4.46875H41.1875V3Z" fill="url(#paint6_linear)"/>
<path d="M44.125 5.9375H50V7.40625H44.125V5.9375Z" fill="url(#paint7_linear)"/>
<path d="M47.0625 8.875H50V10.3438H47.0625V8.875Z" fill="url(#paint8_linear)"/>
<path d="M3 3H11.8125V4.46875H3V3Z" fill="url(#paint9_linear)"/>
<path d="M3 5.9375H8.875V7.40625H3V5.9375Z" fill="url(#paint10_linear)"/>
<path d="M3 8.875H5.9375V10.3438H3V8.875Z" fill="url(#paint11_linear)"/>
</g>

</symbol><symbol id="icon-document" viewBox="0 0 47 47">
<path d="M3.79027 4.54839H26.5322V9.85484C26.5322 10.2742 26.8709 10.6129 27.2903 10.6129H32.5967V16.6774H34.1128V9.85484C34.1128 9.64496 34.0273 9.45545 33.89 9.31812L27.8277 3.25583C27.6897 3.11776 27.5001 3.03226 27.2903 3.03226H6.82253V1.51613H35.629V18.1935H37.1451V0.758065C37.1451 0.338686 36.8064 0 36.387 0H6.06446C5.64508 0 5.3064 0.338686 5.3064 0.758065V3.03226H3.0322C2.61283 3.03226 2.27414 3.37094 2.27414 3.79032V46.2419C2.27414 46.6613 2.61283 47 3.0322 47H28.8064V45.4839H3.79027V4.54839ZM28.0483 5.62034L31.5248 9.09677H28.0483V5.62034Z" fill="url(#paint0_linear)"/>
<path d="M43.9678 22.7419H42.8262C39.4412 22.7419 36.2576 21.251 34.0911 18.6514L33.9378 18.4671C33.6506 18.1206 33.0598 18.1206 32.7726 18.4671L32.6194 18.6507C30.4521 21.251 27.2685 22.7419 23.8835 22.7419H22.742C22.3226 22.7419 21.9839 23.0806 21.9839 23.5V35.7775C21.9839 38.7627 23.594 41.5374 26.1858 43.0179L32.9788 46.9001C33.095 46.9667 33.2253 47 33.3549 47C33.4844 47 33.6147 46.9667 33.7309 46.9001L40.5239 43.0179C43.1157 41.5374 44.7258 38.7627 44.7258 35.7775V23.5C44.7258 23.0806 44.3871 22.7419 43.9678 22.7419ZM43.2097 35.7775C43.2097 38.2201 41.8931 40.4898 39.7717 41.701L33.3549 45.3695L26.938 41.7021C24.8166 40.4898 23.5 38.2201 23.5 35.7775V24.2581H23.8835C27.501 24.2581 30.9171 22.7549 33.3549 20.1105C35.7919 22.7549 39.2088 24.2581 42.8262 24.2581H43.2097V35.7775Z" fill="url(#paint1_linear)"/>
<path d="M33.3549 25.0161C28.7572 25.0161 25.0161 28.7572 25.0161 33.3549C25.0161 37.9525 28.7572 41.6936 33.3549 41.6936C37.9525 41.6936 41.6936 37.9525 41.6936 33.3549C41.6936 28.7572 37.9525 25.0161 33.3549 25.0161ZM33.3549 40.1774C29.5927 40.1774 26.5323 37.117 26.5323 33.3549C26.5323 29.5927 29.5927 26.5323 33.3549 26.5323C37.117 26.5323 40.1774 29.5927 40.1774 33.3549C40.1774 37.117 37.117 40.1774 33.3549 40.1774Z" fill="url(#paint2_linear)"/>
<path d="M32.9931 35.7116L31.6166 34.335L30.5446 35.4069L32.8188 37.6811C32.9621 37.8251 33.156 37.9032 33.3548 37.9032C33.4162 37.9032 33.4784 37.8958 33.5399 37.8806C33.799 37.8151 34.0037 37.6182 34.081 37.3628L36.3552 29.7822L34.9027 29.3469L32.9931 35.7116Z" fill="url(#paint3_linear)"/>
<path d="M5.30643 12.129H25.0161V13.6452H5.30643V12.129Z" fill="url(#paint4_linear)"/>
<path d="M5.30643 15.1613H25.0161V16.6774H5.30643V15.1613Z" fill="url(#paint5_linear)"/>
<path d="M5.30643 18.1935H25.0161V19.7097H5.30643V18.1935Z" fill="url(#paint6_linear)"/>
<path d="M5.30643 21.2258H20.4677V22.7419H5.30643V21.2258Z" fill="url(#paint7_linear)"/>
<path d="M5.30643 24.2581H20.4677V25.7742H5.30643V24.2581Z" fill="url(#paint8_linear)"/>
<path d="M5.30643 27.2903H20.4677V28.8065H5.30643V27.2903Z" fill="url(#paint9_linear)"/>
<path d="M5.30643 36.3871H20.4677V37.9032H5.30643V36.3871Z" fill="url(#paint10_linear)"/>
<path d="M5.30643 39.4194H20.4677V40.9355H5.30643V39.4194Z" fill="url(#paint11_linear)"/>
<path d="M5.30643 42.4516H20.4677V43.9677H5.30643V42.4516Z" fill="url(#paint12_linear)"/>
<path d="M6.06454 6.06453H7.58067V7.58066H6.06454V6.06453Z" fill="url(#paint13_linear)"/>
<path d="M9.0968 6.06453H10.6129V7.58066H9.0968V6.06453Z" fill="url(#paint14_linear)"/>
<path d="M12.1291 6.06453H13.6452V7.58066H12.1291V6.06453Z" fill="url(#paint15_linear)"/>
<path d="M15.1613 6.06453H25.0162V7.58066H15.1613V6.06453Z" fill="url(#paint16_linear)"/>

</symbol><symbol id="icon-money" viewBox="0 0 52 52">
<path d="M26.6528 28.2878C26.5603 28.2678 26.4654 28.2642 26.3717 28.2782C25.4326 28.1689 24.7242 27.3744 24.7226 26.4293C24.7226 25.9764 24.3554 25.6091 23.9025 25.6091C23.4495 25.6091 23.0823 25.9764 23.0823 26.4293C23.0847 28.0075 24.1403 29.3899 25.6621 29.8076V30.6277C25.6621 31.0806 26.0293 31.4479 26.4822 31.4479C26.9351 31.4479 27.3024 31.0806 27.3024 30.6277V29.8572C29.0588 29.4896 30.2526 27.8537 30.068 26.0689C29.8829 24.284 28.3792 22.9276 26.5847 22.9272C25.5564 22.9272 24.7226 22.0935 24.7226 21.0651C24.7226 20.0367 25.5564 19.203 26.5847 19.203C27.6131 19.203 28.4469 20.0367 28.4469 21.0651C28.4469 21.518 28.8141 21.8852 29.267 21.8852C29.72 21.8852 30.0872 21.518 30.0872 21.0651C30.0848 19.408 28.9238 17.9787 27.3024 17.6367V16.8903C27.3024 16.4374 26.9351 16.0701 26.4822 16.0701C26.0293 16.0701 25.6621 16.4374 25.6621 16.8903V17.6868C23.9697 18.1489 22.8805 19.792 23.1135 21.5308C23.3466 23.2696 24.8303 24.5675 26.5847 24.5671C27.5995 24.5671 28.4273 25.3797 28.4457 26.394C28.4645 27.4084 27.6668 28.251 26.6528 28.2878Z" fill="url(#paint0_linear)"/>
<path d="M14.6918 23.8103C14.6918 30.3786 20.0163 35.7032 26.5847 35.7032C33.153 35.7032 38.4776 30.3786 38.4776 23.8103C38.4776 17.2419 33.153 11.9174 26.5847 11.9174C20.0195 11.9246 14.6994 17.2451 14.6918 23.8103ZM26.5847 13.5577C32.2472 13.5577 36.8373 18.1477 36.8373 23.8103C36.8373 29.4728 32.2472 34.0629 26.5847 34.0629C20.9222 34.0629 16.3321 29.4728 16.3321 23.8103C16.3385 18.1505 20.925 13.5641 26.5847 13.5577Z" fill="url(#paint1_linear)"/>
<path d="M42.5205 37.7251L36.096 40.7606C35.2089 39.1107 33.5074 38.0607 31.6348 38.0078L25.704 37.8448C24.7649 37.818 23.8435 37.5801 23.0085 37.1488L22.405 36.8361C19.315 35.2254 15.632 35.2294 12.5452 36.8465L12.5829 35.4793C12.5953 35.0264 12.2385 34.6491 11.7856 34.6367L5.28208 34.4577C4.82916 34.4453 4.45233 34.8021 4.43991 35.255L4.04706 49.5267C4.03465 49.9796 4.39146 50.3568 4.84438 50.3692L11.3479 50.5482H11.3703C11.8148 50.5482 12.1784 50.1946 12.1904 49.7505L12.2093 49.0677L13.8988 48.1631C14.562 47.8063 15.3373 47.7214 16.0617 47.9264L26.1509 50.7581C26.1685 50.7633 26.1861 50.7673 26.2042 50.7713C26.9334 50.9239 27.6767 51.0004 28.4215 51C29.9993 51.0008 31.5587 50.6608 32.9928 50.0024C33.028 49.9864 33.0621 49.9676 33.0945 49.9464L47.7229 40.4843C48.0874 40.2484 48.2051 39.7698 47.9916 39.3918C46.9056 37.4648 44.4968 36.7307 42.5205 37.7251ZM5.70937 48.7522L6.05697 36.12L10.9206 36.2538L10.573 48.8863L5.70937 48.7522ZM32.2539 48.5375C30.4723 49.3417 28.4824 49.5635 26.5674 49.1723L16.5054 46.3478C15.3729 46.0278 14.1607 46.1604 13.1247 46.7174L12.2613 47.18L12.4924 38.7811C15.2283 36.9614 18.7372 36.7744 21.6509 38.2925L22.2544 38.6053C23.3092 39.1499 24.4726 39.4503 25.6591 39.4847L31.5904 39.6477C33.2563 39.6957 34.6711 40.8819 35.0091 42.5142L26.1745 42.2703C25.7216 42.2579 25.3448 42.6151 25.332 43.0676C25.3195 43.5206 25.6768 43.8978 26.1293 43.9102L35.8789 44.1785H35.9017C36.3458 44.1781 36.7091 43.8245 36.7211 43.3808C36.7311 43.0244 36.7047 42.6676 36.6418 42.3168L43.2314 39.2032C43.2378 39.2004 43.2442 39.1972 43.2506 39.194C44.1853 38.721 45.3154 38.8792 46.0843 39.5908L32.2539 48.5375Z" fill="url(#paint2_linear)"/>
<path d="M27.4048 9.61152V1.82014C27.4048 1.36722 27.0376 1 26.5847 1C26.1317 1 25.7645 1.36722 25.7645 1.82014V9.61152C25.7645 10.0644 26.1317 10.4317 26.5847 10.4317C27.0376 10.4317 27.4048 10.0644 27.4048 9.61152Z" fill="url(#paint3_linear)"/>
<path d="M33.5558 9.6115V5.92085C33.5558 5.46793 33.1886 5.10071 32.7357 5.10071C32.2828 5.10071 31.9155 5.46793 31.9155 5.92085V9.6115C31.9155 10.0644 32.2828 10.4316 32.7357 10.4316C33.1886 10.4316 33.5558 10.0644 33.5558 9.6115Z" fill="url(#paint4_linear)"/>
<path d="M21.2538 9.6115V5.92085C21.2538 5.46793 20.8865 5.10071 20.4336 5.10071C19.9807 5.10071 19.6135 5.46793 19.6135 5.92085V9.6115C19.6135 10.0644 19.9807 10.4316 20.4336 10.4316C20.8865 10.4316 21.2538 10.0644 21.2538 9.6115Z" fill="url(#paint5_linear)"/>

</symbol><symbol id="icon-phone" viewBox="0 0 20 20">
<path d="M17.9636 15.2432C17.9153 15.0975 17.6077 14.8829 17.0411 14.5999C16.8876 14.5107 16.6689 14.3895 16.3859 14.2357C16.1026 14.0819 15.8455 13.9402 15.615 13.8107C15.3841 13.6812 15.1677 13.5558 14.9655 13.4346C14.9332 13.4103 14.8321 13.3396 14.6621 13.222C14.492 13.1047 14.3485 13.0177 14.231 12.961C14.1137 12.9045 13.9983 12.8761 13.8849 12.8761C13.7231 12.8761 13.521 12.9915 13.2783 13.222C13.0356 13.4528 12.813 13.7035 12.6107 13.9748C12.4085 14.246 12.194 14.4967 11.9676 14.7274C11.7409 14.9581 11.5546 15.0734 11.4091 15.0734C10.1247 15.0734 8.32706 13.3023 7.51224 12.4878C6.63334 11.6085 4.92663 9.95131 4.92663 8.59104C4.92663 8.44546 5.04198 8.25923 5.27265 8.03261C5.50327 7.80612 5.75421 7.59157 6.02523 7.3894C6.29646 7.18723 6.54715 6.96461 6.77785 6.72192C7.00847 6.4791 7.12379 6.27689 7.12379 6.11507C7.12379 6.00184 7.09547 5.88641 7.03888 5.7691C6.98224 5.65154 6.89525 5.50808 6.77785 5.33806C6.66042 5.16811 6.58962 5.06705 6.5653 5.03452C6.44404 4.83235 6.31874 4.6159 6.1891 4.38524C6.05946 4.15462 5.91795 3.89756 5.76412 3.61435C5.61042 3.33127 5.48911 3.11269 5.39999 2.95894C5.1169 2.39256 4.90248 2.08491 4.75677 2.03652C4.70009 2.01225 4.61505 2 4.50187 2C4.28324 2 3.99802 2.04039 3.64601 2.12143C3.29387 2.20234 3.01677 2.28721 2.81442 2.37637C2.40977 2.54622 1.98089 3.03985 1.52764 3.85708C0.28566 6.14573 1.45872 9.34206 2.75354 11.4195C4.17093 13.7169 6.28302 15.8288 8.58022 17.2464C10.6572 18.5409 13.855 19.7141 16.1429 18.4729C17.0377 17.9768 17.5756 17.4577 17.8345 16.5282C17.8502 16.4719 17.8649 16.414 17.8785 16.3545C17.9597 16.0025 18 15.7174 18 15.4988C18.0003 15.3851 17.988 15.3003 17.9636 15.2432Z" fill="url(#paint0_linear)"/>

</symbol><symbol id="icon-time" viewBox="0 0 52 52">
<path d="M27.7451 32.2674C28.5385 32.205 29.2619 31.7959 29.7314 31.1434L36.8679 21.1711C37.0867 20.8652 37.0539 20.443 36.7887 20.1749C36.5234 19.9076 36.1057 19.8745 35.8031 20.0948L25.9356 27.3105C25.2923 27.7836 24.8875 28.5147 24.8258 29.3167C24.7641 30.1187 25.0514 30.9038 25.6132 31.4716C26.1246 31.9893 26.8144 32.2759 27.5316 32.2759C27.6025 32.2759 27.6734 32.2728 27.7451 32.2674ZM26.3457 29.4369C26.3723 29.0848 26.5507 28.7635 26.8312 28.5571L32.8503 24.1557L28.4974 30.2381C28.2916 30.5239 27.9737 30.7035 27.6254 30.7312C27.2786 30.7543 26.9379 30.6326 26.6902 30.3822C26.4447 30.1333 26.3182 29.7882 26.3457 29.4369Z" fill="url(#paint0_linear)"/>
<path d="M44.8185 18.0724C44.8109 18.0563 44.8109 18.0393 44.8025 18.0231C44.7934 18.0077 44.7789 17.9992 44.769 17.9846C43.9984 16.6487 43.0868 15.406 42.0517 14.2797L43.6889 12.6256L44.7667 13.715L48 10.4461L44.7667 7.17797L41.5327 10.4461L42.6112 11.5362L40.974 13.1903C39.8596 12.1441 38.6309 11.2219 37.3085 10.443C37.294 10.433 37.2856 10.4183 37.2704 10.4091C37.2544 10.3999 37.2376 10.4006 37.2216 10.3921C34.8641 9.01927 32.2154 8.10478 29.3914 7.76965V6.85208H30.5347C31.5858 6.85208 32.4403 5.98845 32.4403 4.92604C32.4403 3.86364 31.5851 3 30.534 3H23.6741C22.623 3 21.7686 3.86364 21.7686 4.92604C21.7686 5.98845 22.623 6.85208 23.6741 6.85208H24.8174V7.74268C23.9942 7.83128 23.1726 7.96688 22.3601 8.15486C21.95 8.24962 21.6931 8.66333 21.7876 9.07782C21.8814 9.4923 22.2907 9.7527 22.7008 9.6564C23.402 9.49384 24.1101 9.37135 24.8197 9.28891L25.6376 9.22497C25.8876 9.20571 26.1178 9.19184 26.3418 9.18105V10.7042C26.3418 11.1302 26.6825 11.4746 27.104 11.4746C27.5256 11.4746 27.8663 11.1302 27.8663 10.7042V9.18645C30.7329 9.31973 33.4342 10.0978 35.8359 11.3783L35.0844 12.6934C34.874 13.0624 34.999 13.5331 35.3633 13.7458C35.483 13.8159 35.6141 13.849 35.7437 13.849C36.0074 13.849 36.2635 13.7111 36.4045 13.4638L37.1538 12.1518C39.5387 13.6811 41.5647 15.7288 43.0777 18.1395L41.7796 18.8968C41.416 19.1094 41.291 19.5801 41.5022 19.9492C41.6439 20.1965 41.8993 20.3344 42.163 20.3344C42.2926 20.3344 42.4237 20.3012 42.5433 20.2311L43.8444 19.4715C45.1288 21.9338 45.9009 24.7088 46.016 27.6526H44.5106C44.0891 27.6526 43.7484 27.9969 43.7484 28.423C43.7484 28.849 44.0891 29.1934 44.5106 29.1934H46.016C45.9009 32.1372 45.1288 34.9122 43.8444 37.3744L42.5433 36.6148C42.179 36.4022 41.7125 36.527 41.5022 36.8968C41.2918 37.2658 41.4168 37.7365 41.7811 37.9492L43.0792 38.7065C41.5662 41.1171 39.5402 43.1649 37.1553 44.6942L36.406 43.3822C36.1949 43.0124 35.7277 42.8868 35.3649 43.1002C34.9998 43.3128 34.8748 43.7843 35.0859 44.1526L35.8374 45.4677C33.4357 46.7481 30.7344 47.5262 27.8678 47.6595V46.1433C27.8678 45.7173 27.5271 45.3729 27.1056 45.3729C26.6841 45.3729 26.3434 45.7173 26.3434 46.1433V47.6657C25.1261 47.6233 23.9051 47.4692 22.7031 47.1903C22.293 47.0909 21.8837 47.3544 21.7899 47.7689C21.6954 48.1834 21.9523 48.5971 22.3624 48.6919C23.8837 49.0463 25.4379 49.225 26.9798 49.225C27.0172 49.225 27.053 49.2227 27.0903 49.2219C27.0957 49.2219 27.0995 49.225 27.104 49.225C27.1101 49.225 27.1155 49.2211 27.1216 49.2211C30.7855 49.1957 34.2231 48.1957 37.1972 46.4684C37.2208 46.4577 37.246 46.4523 37.2689 46.4384C37.2841 46.4292 37.2925 46.4145 37.307 46.4045C40.3855 44.5909 42.958 41.9939 44.756 38.8845C44.7705 38.8637 44.7888 38.8475 44.8018 38.8244C44.8109 38.8082 44.8102 38.7912 44.8178 38.7751C46.5587 35.7242 47.5594 32.1911 47.5594 28.4237C47.5594 24.6564 46.5587 21.1233 44.8185 18.0724ZM44.7659 9.35671L45.8437 10.4461L44.7659 11.5362L43.6874 10.4461L44.7659 9.35671ZM26.3418 7.63868V5.31125H23.6741C23.4645 5.31125 23.293 5.13791 23.293 4.92604C23.293 4.71418 23.4645 4.54083 23.6741 4.54083H30.534C30.7436 4.54083 30.9151 4.71418 30.9151 4.92604C30.9151 5.13791 30.7436 5.31125 30.534 5.31125H27.8663V7.63868C27.601 7.62789 27.348 7.6225 27.104 7.6225C27.0827 7.6225 27.0583 7.62404 27.037 7.62404C27.0179 7.62404 26.9989 7.6225 26.9798 7.6225C26.8548 7.6225 26.7298 7.63097 26.6048 7.63329C26.5164 7.6356 26.4333 7.63483 26.3418 7.63868Z" fill="url(#paint1_linear)"/>
<path d="M20.2442 13.7858H16.4331C16.0116 13.7858 15.6709 14.1302 15.6709 14.5562C15.6709 14.9822 16.0116 15.3266 16.4331 15.3266H20.2442C20.6657 15.3266 21.0064 14.9822 21.0064 14.5562C21.0064 14.1302 20.6657 13.7858 20.2442 13.7858Z" fill="url(#paint2_linear)"/>
<path d="M20.2442 19.1788H12.6221C12.2006 19.1788 11.8599 19.5231 11.8599 19.9492C11.8599 20.3752 12.2006 20.7196 12.6221 20.7196H20.2442C20.6657 20.7196 21.0064 20.3752 21.0064 19.9492C21.0064 19.5231 20.6657 19.1788 20.2442 19.1788Z" fill="url(#paint3_linear)"/>
<path d="M20.2442 24.5717H8.81104C8.38954 24.5717 8.04883 24.9161 8.04883 25.3421C8.04883 25.7682 8.38954 26.1125 8.81104 26.1125H20.2442C20.6657 26.1125 21.0064 25.7682 21.0064 25.3421C21.0064 24.9161 20.6657 24.5717 20.2442 24.5717Z" fill="url(#paint4_linear)"/>
<path d="M20.2442 29.9645H5.76221C5.34071 29.9645 5 30.3089 5 30.735C5 31.161 5.34071 31.5054 5.76221 31.5054H20.2442C20.6657 31.5054 21.0064 31.161 21.0064 30.735C21.0064 30.3089 20.6657 29.9645 20.2442 29.9645Z" fill="url(#paint5_linear)"/>
<path d="M20.2442 35.3575H10.3355C9.91395 35.3575 9.57324 35.7019 9.57324 36.1279C9.57324 36.554 9.91395 36.8983 10.3355 36.8983H20.2442C20.6657 36.8983 21.0064 36.554 21.0064 36.1279C21.0064 35.7019 20.6657 35.3575 20.2442 35.3575Z" fill="url(#paint6_linear)"/>
<path d="M20.2442 40.7505H14.9087C14.4872 40.7505 14.1465 41.0948 14.1465 41.5209C14.1465 41.9469 14.4872 42.2913 14.9087 42.2913H20.2442C20.6657 42.2913 21.0064 41.9469 21.0064 41.5209C21.0064 41.0948 20.6657 40.7505 20.2442 40.7505Z" fill="url(#paint7_linear)"/>

</symbol></svg>